<svg id="Layer_1" data-name="Layer 1" xmlns="http://www.w3.org/2000/svg" viewBox="0 0 911.45 250"><defs><style>.cls-1{fill:#e8e8e8;}</style></defs><path class="cls-1" d="M353.3,117,314.76,84l.38,32.68H292.92V41h22.22l-.38,30.83,38.29-30.56,28.12-.14-2.89,2.4L337.48,77l40.8,37.2,2.89,2.52.25.27Z"/><polygon class="cls-1" points="411.71 39.89 369.58 96.61 383.02 108.86 386.1 111.56 386.35 111.81 412.46 76.16 443.09 116.95 471.47 116.95 411.71 39.89"/><polygon class="cls-1" points="538.6 117.88 538.85 39.62 516 39.62 516.13 79.75 451.6 39.36 451.67 79.82 471.72 105.69 471.81 78.95 538.6 117.88"/><path class="cls-1" d="M610.54,71.24q13.19,0,20.21,5.19,6.78,5.17,6.78,15.67a30.38,30.38,0,0,1-1.63,10.37,18.12,18.12,0,0,1-5.53,7.84,24.82,24.82,0,0,1-9.54,4.91A50.87,50.87,0,0,1,606.77,117H544.38l-.5-19.53h64.53c2.76,0,4.72-.44,5.9-1.33s1.75-2.21,1.75-4.25-.58-3.46-1.75-4.25-3.23-1.2-5.9-1.2h-39a40.18,40.18,0,0,1-12.05-1.59,23.54,23.54,0,0,1-8.41-4.52,15.88,15.88,0,0,1-4.9-6.91,23.25,23.25,0,0,1-1.63-8.9,26.53,26.53,0,0,1,1.76-9.7,17.93,17.93,0,0,1,5.52-7.44,27.37,27.37,0,0,1,9.54-4.78,50.49,50.49,0,0,1,14.06-1.73l77.37.26L635.77,61l-64.27-.39a11,11,0,0,0-5.78,1.19c-1.25.71-1.88,2.08-1.88,4.12a4.51,4.51,0,0,0,1.88,4.12,11,11,0,0,0,5.78,1.19Z"/><path class="cls-1" d="M811.5,76.43q-7-5.19-20.22-5.19h-39a11,11,0,0,1-5.77-1.19,4.49,4.49,0,0,1-1.89-4.12q0-3.06,1.89-4.12a11,11,0,0,1,5.77-1.19l64.28.39-.13-20.19H754a50.44,50.44,0,0,0-14.06,1.73,27.37,27.37,0,0,0-9.54,4.78,17.87,17.87,0,0,0-5.53,7.44,26.52,26.52,0,0,0-1.75,9.7,23.25,23.25,0,0,0,1.63,8.9,15.85,15.85,0,0,0,4.89,6.91,23.59,23.59,0,0,0,8.42,4.52,40.13,40.13,0,0,0,12.05,1.59h39q4,0,5.9,1.2c1.17.79,1.76,2.21,1.76,4.25s-.59,3.45-1.76,4.25-3.14,1.33-5.9,1.33H731.9L687.29,39.89,630.05,117h28.12l29.88-40.79L718.68,117h68.84a51,51,0,0,0,14.06-1.73,25,25,0,0,0,9.54-4.91,18,18,0,0,0,5.52-7.84,30.38,30.38,0,0,0,1.64-10.37Q818.28,81.62,811.5,76.43Z"/><path class="cls-1" d="M345.07,186.42H301.81V176.06h39.78a46.4,46.4,0,0,1-.86-8.9,44.16,44.16,0,0,1,.79-8.37H301.81v-9.17l42.5.18c.12-.27.24-.55.37-.83a42.08,42.08,0,0,1,10.85-14.19,44.29,44.29,0,0,1,7-5H279.46V206h83.61v-.16a46.13,46.13,0,0,1-7.68-5.58A44,44,0,0,1,345.07,186.42Z"/><path class="cls-1" d="M394.53,158.39h46V206H391.15A49.59,49.59,0,0,1,373.82,203a42.19,42.19,0,0,1-13.68-8.1,37,37,0,0,1-9-12.36,36.12,36.12,0,0,1-3.27-15.41,34.78,34.78,0,0,1,12.31-27,41,41,0,0,1,13.68-7.71,54.91,54.91,0,0,1,17.33-2.66h49l.12,20.06-49.08-.26a25.8,25.8,0,0,0-8.42,1.33,20.31,20.31,0,0,0-6.65,4,18.72,18.72,0,0,0-4.52,5.85,17.79,17.79,0,0,0,0,14.88,14.46,14.46,0,0,0,4.4,5.71,19.53,19.53,0,0,0,6.65,3.72,25.43,25.43,0,0,0,8.54,1.33h27.24v-11H394.53Z"/><path class="cls-1" d="M530.3,186.42l.13,19.53H446.82V129.82h83.23v20.06l-60.89-.26v9.17h50.72v17.27H469.16v10.36Z"/><path class="cls-1" d="M718.6,152.14a35.08,35.08,0,0,0-9-11.82,42.77,42.77,0,0,0-13.69-7.71,52.12,52.12,0,0,0-17.44-2.79H601.16l.13,38.93-64.53-38.93.12,76.13h20l.12-38,66.79,38,.18-56.3,54.49,0a23.19,23.19,0,0,1,8.41,1.46,23.81,23.81,0,0,1,6.78,3.85,18.69,18.69,0,0,1,4.51,5.85,16.63,16.63,0,0,1,1.64,7.44,17,17,0,0,1-6,13.15,19.63,19.63,0,0,1-6.65,3.72,26.63,26.63,0,0,1-8.66,1.33H652.69v-27.9H630.34V206h48.09A49.58,49.58,0,0,0,695.75,203a44,44,0,0,0,13.68-8.1,37.14,37.14,0,0,0,9-12.36,36.48,36.48,0,0,0,.13-30.43Z"/><path class="cls-1" d="M810.24,165.43q-7-5.18-20.21-5.18H751a11,11,0,0,1-5.78-1.2,4.5,4.5,0,0,1-1.88-4.12c0-2,.63-3.41,1.88-4.12a11.08,11.08,0,0,1,5.78-1.19l64.27.4-.12-20.2h-62.4a50.49,50.49,0,0,0-14.06,1.73,27.54,27.54,0,0,0-9.54,4.78,17.93,17.93,0,0,0-5.52,7.44c-.21.55-.39,1.11-.56,1.67.71,1.19,1.36,2.41,2,3.67a41.9,41.9,0,0,1,4,18c0,.84,0,1.69-.07,2.52a24,24,0,0,0,7.9,4.12,40.18,40.18,0,0,0,12.05,1.59h39q4,0,5.9,1.2c1.17.8,1.75,2.22,1.75,4.25s-.58,3.46-1.75,4.25-3.14,1.33-5.9,1.33H724.5a44.3,44.3,0,0,1-10.32,13.79,49.56,49.56,0,0,1-8,5.74h80.12a51.27,51.27,0,0,0,14.06-1.72,24.7,24.7,0,0,0,9.54-4.92,18.12,18.12,0,0,0,5.53-7.84A30.32,30.32,0,0,0,817,181.11Q817,170.61,810.24,165.43Z"/><path class="cls-1" d="M177.58,15.58l-35,70.3H87.29a362,362,0,0,1,50.67,10,261.53,261.53,0,0,1,30.13,10.71h0l.12.07,2.64-5.51,7-13.77,16.29,32.11A241.18,241.18,0,0,1,254.21,168C222,103.64,177.58,15.58,177.58,15.58Z"/><path class="cls-1" d="M197.39,180.47A268.91,268.91,0,0,0,121,129.37l-15.53,31.22h0L68.68,234.42h34.55l34-67Z"/><path class="cls-1" d="M251.63,60.62q5.64,0,8.91,2.25a7.58,7.58,0,0,1,3.26,6.65q0,4.92-4.27,6.64a19.27,19.27,0,0,1-7.9,1.86H218.56c3.08,6.11,6.25,12.43,9.49,18.87H245.6L262.42,117h26.11L267.82,92.1a23.68,23.68,0,0,0,7.78-3,21.43,21.43,0,0,0,6-5.44,23.2,23.2,0,0,0,3.64-7.15,28.32,28.32,0,0,0,1.26-8.35q0-8.09-3.39-13.39a28.47,28.47,0,0,0-8.79-8.21,41.06,41.06,0,0,0-11.93-4.24,71.53,71.53,0,0,0-12.68-1.2H200l9.84,19.54Z"/><path class="cls-1" d="M332.17,210.18H273.35C181.18,63.35,12.66,98.77,12.66,98.77c172.25,0,239.79,135.65,239.79,135.65H354.68Z"/></svg>