<svg id="Layer_1" data-name="Layer 1" xmlns="http://www.w3.org/2000/svg" viewBox="0 0 250 250"><defs><style>.cls-1{fill:#e8e8e8;}</style></defs><path class="cls-1" d="M123,38,98.36,87.52H59.44A255.68,255.68,0,0,1,95,94.5a183.74,183.74,0,0,1,21.28,7.56h0l.09,0,1.85-3.88,4.91-9.69,11.47,22.6a169.78,169.78,0,0,1,42.28,34.21C154.23,100,123,38,123,38Z"/><path class="cls-1" d="M136.92,154.09a189.43,189.43,0,0,0-53.79-36l-10.94,22h0l-25.85,52H70.66l23.9-47.13Z"/><path class="cls-1" d="M231.78,175H190.39C125.51,71.66,6.91,96.59,6.91,96.59c121.23,0,168.76,95.47,168.76,95.47h72Z"/></svg>