<svg id="Layer_1" data-name="Layer 1" xmlns="http://www.w3.org/2000/svg" viewBox="0 0 833.74 250"><defs><style>.cls-1{fill:#4169e1;}</style></defs><path class="cls-1" d="M345.07,186.42H301.81V176.06h39.78a46.4,46.4,0,0,1-.86-8.9,44.16,44.16,0,0,1,.79-8.37H301.81v-9.17l42.5.18c.12-.27.24-.55.37-.83a42.08,42.08,0,0,1,10.85-14.19,44.29,44.29,0,0,1,7-5H279.46V206h83.61v-.16a46.13,46.13,0,0,1-7.68-5.58A44,44,0,0,1,345.07,186.42Z"/><path class="cls-1" d="M394.53,158.39h46V206H391.15A49.59,49.59,0,0,1,373.82,203a42.19,42.19,0,0,1-13.68-8.1,37,37,0,0,1-9-12.36,36.12,36.12,0,0,1-3.27-15.41,34.78,34.78,0,0,1,12.31-27,41,41,0,0,1,13.68-7.71,54.91,54.91,0,0,1,17.33-2.66h49l.12,20.06-49.08-.26a25.8,25.8,0,0,0-8.42,1.33,20.31,20.31,0,0,0-6.65,4,18.72,18.72,0,0,0-4.52,5.85,17.79,17.79,0,0,0,0,14.88,14.46,14.46,0,0,0,4.4,5.71,19.53,19.53,0,0,0,6.65,3.72,25.43,25.43,0,0,0,8.54,1.33h27.24v-11H394.53Z"/><path class="cls-1" d="M530.3,186.42l.13,19.53H446.82V129.82h83.23v20.06l-60.89-.26v9.17h50.72v17.27H469.16v10.36Z"/><path class="cls-1" d="M718.6,152.14a35.08,35.08,0,0,0-9-11.82,42.77,42.77,0,0,0-13.69-7.71,52.12,52.12,0,0,0-17.44-2.79H601.16l.13,38.93-64.53-38.93.12,76.13h20l.12-38,66.79,38,.18-56.3,54.49,0a23.19,23.19,0,0,1,8.41,1.46,23.81,23.81,0,0,1,6.78,3.85,18.69,18.69,0,0,1,4.51,5.85,16.63,16.63,0,0,1,1.64,7.44,17,17,0,0,1-6,13.15,19.63,19.63,0,0,1-6.65,3.72,26.63,26.63,0,0,1-8.66,1.33H652.69v-27.9H630.34V206h48.09A49.58,49.58,0,0,0,695.75,203a44,44,0,0,0,13.68-8.1,37.14,37.14,0,0,0,9-12.36,36.48,36.48,0,0,0,.13-30.43Z"/><path class="cls-1" d="M810.24,165.43q-7-5.18-20.21-5.18H751a11,11,0,0,1-5.78-1.2,4.5,4.5,0,0,1-1.88-4.12c0-2,.63-3.41,1.88-4.12a11.08,11.08,0,0,1,5.78-1.19l64.27.4-.12-20.2h-62.4a50.49,50.49,0,0,0-14.06,1.73,27.54,27.54,0,0,0-9.54,4.78,17.93,17.93,0,0,0-5.52,7.44c-.21.55-.39,1.11-.56,1.67.71,1.19,1.36,2.41,2,3.67a41.9,41.9,0,0,1,4,18c0,.84,0,1.69-.07,2.52a24,24,0,0,0,7.9,4.12,40.18,40.18,0,0,0,12.05,1.59h39q4,0,5.9,1.2c1.17.8,1.75,2.22,1.75,4.25s-.58,3.46-1.75,4.25-3.14,1.33-5.9,1.33H724.5a44.3,44.3,0,0,1-10.32,13.79,49.56,49.56,0,0,1-8,5.74h80.12a51.27,51.27,0,0,0,14.06-1.72,24.7,24.7,0,0,0,9.54-4.92,18.12,18.12,0,0,0,5.53-7.84A30.32,30.32,0,0,0,817,181.11Q817,170.61,810.24,165.43Z"/><path class="cls-1" d="M332.17,210.18H273.35C181.18,63.35,12.66,98.77,12.66,98.77c172.25,0,239.79,135.65,239.79,135.65H354.68Z"/></svg>